<?xml version="1.0" encoding="utf-8"?>
<!-- Generator: Adobe Illustrator 24.3.0, SVG Export Plug-In . SVG Version: 6.00 Build 0)  -->
<svg version="1.1" id="Camada_1" xmlns="http://www.w3.org/2000/svg" xmlns:xlink="http://www.w3.org/1999/xlink" x="0px" y="0px"
	 viewBox="0 0 512 512" style="enable-background:new 0 0 512 512;" xml:space="preserve">
<style type="text/css">
	.st0{fill:#C02F1E;}
	.st1{fill:none;stroke:#C02F1E;stroke-width:15;stroke-miterlimit:10;}
</style>
<path class="st0" d="M219.2,248.3c16.4-7.2,24.7-22.5,24.7-46.1c0-34-19.4-51.1-58.3-51.1h-56c-4.5,0-8.3,1.1-11.6,3.2
	c-3.3,2.1-4.9,5-4.9,8.7v188.6c0,3.1,1.5,5.8,4.6,8.1c3.1,2.3,7.1,3.5,11.9,3.5H191c17.8,0,31.9-4.9,42.4-14.7
	c10.4-9.8,15.7-25.4,15.7-46.9v-6.1c0-13.5-2.5-23.8-7.5-30.9C236.5,257.6,229,252.1,219.2,248.3z M150.4,184.1h32.2
	c7.4,0,13.1,2.2,17.3,6.5c4.2,4.4,6.2,10.3,6.2,17.8c0,7.7-2,13.8-5.9,18.3s-9.7,6.7-17.3,6.7h-32.5V184.1z M211.3,298.5
	c0,21.1-9.4,31.6-28.1,31.6h-32.8v-67h32.8c9.3,0,16.3,2.4,21,7.3c4.7,4.8,7.1,12.7,7.1,23.5V298.5z"/>
<path class="st0" d="M381.6,304c4.1,0,7.3-0.2,9.9-0.6c2.5-0.4,5.3-1.3,8.3-2.9c3-1.5,5.2-4.2,6.7-7.9c1.5-3.7,2.2-8.5,2.2-14.2
	c0-15.7-5.9-28.8-17.6-39.2c-11.7-10.4-25.8-15.6-42.2-15.6c-17.6,0-32.6,5.7-45,17.1c-12.4,11.4-18.6,25.1-18.6,40.9v24.7
	c0,17.8,6.5,32.2,19.6,43.1c13.1,10.9,29.9,16.4,50.6,16.4c14.5,0,26.6-2.7,36.4-8c9.8-5.3,14.7-10.7,14.7-16.1
	c0-3.5-1.4-7.1-4.1-10.9c-2.7-3.8-6.1-5.7-10.2-5.7c-2.1,0-6.8,1.8-13.9,5.5c-7.2,3.7-14.4,5.5-21.8,5.5c-10.3,0-18.5-2.6-24.7-7.7
	c-6.2-5.1-9.3-11.8-9.3-20.2V304H381.6z M322.7,274.3c0-6.3,2.5-11.4,7.5-15.3c5-3.9,10.9-5.8,17.7-5.8c7.2,0,13.2,2,18.1,6
	c4.9,4,7.4,9.1,7.4,15.4c0,2.9-0.6,4.8-1.9,5.8c-1.3,1-3.4,1.5-6.5,1.5h-42.4V274.3z"/>
<path class="st0" d="M394.4,177.9h-93.9c-8.3,0-15,6.7-15,15c0,8.3,6.7,15,15,15h93.9c8.3,0,15-6.7,15-15
	C409.4,184.6,402.7,177.9,394.4,177.9z"/>
<rect x="9" y="9" class="st1" width="496" height="496"/>
</svg>
