<?xml version="1.0" encoding="utf-8"?>
<!-- Generator: Adobe Illustrator 24.3.0, SVG Export Plug-In . SVG Version: 6.00 Build 0)  -->
<svg version="1.1" id="Camada_1" xmlns="http://www.w3.org/2000/svg" xmlns:xlink="http://www.w3.org/1999/xlink" x="0px" y="0px"
	 viewBox="0 0 98 86.2" style="enable-background:new 0 0 98 86.2;" xml:space="preserve">
<style type="text/css">
	.st0{fill-rule:evenodd;clip-rule:evenodd;fill:#FFFFFF;}
	.st1{fill:#FFFFFF;}
	.st2{fill-rule:evenodd;clip-rule:evenodd;fill:#C02F1E;}
</style>
<g>
	<path class="st0" d="M72.3,17.2c-1.5-0.7-3-1.3-4.6-1.7c-4.5-1-9.1-0.5-13.3,1.4c-2.5,1.2-4.8,2.8-6.7,4.8s-3.4,4.4-4.4,6.9
		c-1.1,2.7-1.5,5.5-1.5,8.4c0.1,2.8,0.7,5.6,1.9,8.2c1.1,2.5,2.7,4.7,4.7,6.6c2,1.9,4.3,3.4,6.8,4.4l-0.9,2.5
		c-5.7-2.3-10.4-6.7-13-12.4c-2.7-5.9-2.8-12.7-0.5-18.7c1.1-2.9,2.8-5.5,4.9-7.8c2.1-2.2,4.7-4.1,7.5-5.4c2.9-1.4,6.1-2.1,9.3-2.2
		c2.2-0.1,4.4,0.2,6.5,0.7c1.7,0.4,3.4,1.1,4.9,1.9l-0.3,2.9L72.3,17.2z"/>
	
		<rect x="65.9" y="69.4" transform="matrix(0.9615 -0.2748 0.2748 0.9615 -16.6791 22.6308)" class="st1" width="13.1" height="2.8"/>
	<polygon class="st0" points="60.1,66 80.3,60.2 81.1,62.9 60.9,68.7 	"/>
	<rect x="63" y="67.9" transform="matrix(0.9615 -0.2748 0.2748 0.9615 -16.2723 22.4901)" class="st1" width="18.3" height="2.8"/>
	<rect x="58.7" y="58" transform="matrix(0.9615 -0.2748 0.2748 0.9615 -13.6723 21.2995)" class="st1" width="21" height="2.8"/>
	<polygon class="st2" points="16.7,20.6 19.7,20.6 19.7,60.3 44.7,60.3 44.7,63.3 16.7,63.3 	"/>
</g>
</svg>
